G04*
G04 #@! TF.GenerationSoftware,Altium Limited,Altium Designer,26.2.0 (7)*
G04*
G04 Layer_Color=16711935*
%FSLAX44Y44*%
%MOMM*%
G71*
G04*
G04 #@! TF.SameCoordinates,A9467F49-E33E-4DBB-8375-5E2D0BBE018A*
G04*
G04*
G04 #@! TF.FilePolarity,Negative*
G04*
G01*
G75*
%ADD38C,1.8032*%
%ADD39R,1.8032X1.8032*%
%ADD40R,3.7032X1.7032*%
%ADD41R,1.7032X3.7032*%
%ADD42R,1.7032X4.2032*%
%ADD43C,1.4140*%
%ADD44R,1.4140X1.4140*%
%ADD45C,1.8500*%
%ADD46C,1.4000*%
%ADD47R,1.4000X1.4000*%
%ADD48R,1.8500X1.8500*%
%ADD49O,2.6040X1.4040*%
%ADD50C,3.9200*%
%ADD51O,1.4040X2.6040*%
%ADD52C,1.9032*%
%ADD53R,1.8500X1.8500*%
%ADD54C,1.1000*%
%ADD55R,3.9200X3.9200*%
%ADD56R,3.9200X3.9200*%
%ADD57R,1.9032X1.9032*%
%ADD58R,1.8032X1.8032*%
%ADD59C,1.0160*%
%ADD60C,0.8128*%
D38*
X831850Y946150D02*
D03*
X132080Y350520D02*
D03*
X298450Y793750D02*
D03*
Y977900D02*
D03*
Y609600D02*
D03*
D39*
X831850Y996950D02*
D03*
X298450Y558800D02*
D03*
Y742950D02*
D03*
Y927100D02*
D03*
D40*
X195100Y740400D02*
D03*
Y930900D02*
D03*
X196850Y562600D02*
D03*
D41*
X165100Y787400D02*
D03*
Y977900D02*
D03*
X166850Y609600D02*
D03*
D42*
X225100Y787400D02*
D03*
X226850Y609600D02*
D03*
X225100Y977900D02*
D03*
D43*
X685800Y487045D02*
D03*
Y690245D02*
D03*
Y639445D02*
D03*
Y588645D02*
D03*
Y563245D02*
D03*
Y537845D02*
D03*
Y512445D02*
D03*
Y385445D02*
D03*
Y360045D02*
D03*
Y334645D02*
D03*
X533400D02*
D03*
Y360045D02*
D03*
Y385445D02*
D03*
Y410845D02*
D03*
Y436245D02*
D03*
Y461645D02*
D03*
Y487045D02*
D03*
Y512445D02*
D03*
Y537845D02*
D03*
Y563245D02*
D03*
Y588645D02*
D03*
Y639445D02*
D03*
Y664845D02*
D03*
X685800Y410845D02*
D03*
Y461645D02*
D03*
Y436245D02*
D03*
Y614045D02*
D03*
X533400D02*
D03*
X685800Y664845D02*
D03*
D44*
X533400Y690245D02*
D03*
D45*
X386080Y763270D02*
D03*
X660400Y826200D02*
D03*
X384110Y584200D02*
D03*
X386080Y949960D02*
D03*
X685800Y826200D02*
D03*
X386080Y788670D02*
D03*
X384110Y609600D02*
D03*
X386080Y975360D02*
D03*
D46*
X914400Y337350D02*
D03*
Y495700D02*
D03*
Y470700D02*
D03*
Y203600D02*
D03*
Y520700D02*
D03*
Y178600D02*
D03*
Y153600D02*
D03*
Y312350D02*
D03*
Y362350D02*
D03*
D47*
Y228600D02*
D03*
Y387350D02*
D03*
Y545700D02*
D03*
D48*
X386080Y1000760D02*
D03*
Y814070D02*
D03*
X384110Y635000D02*
D03*
D49*
X881380Y704850D02*
D03*
Y839850D02*
D03*
D50*
X821380Y808350D02*
D03*
X597920Y902660D02*
D03*
D51*
X701420Y962660D02*
D03*
X566420D02*
D03*
D52*
X259080Y399560D02*
D03*
Y365560D02*
D03*
X297180Y382560D02*
D03*
Y416560D02*
D03*
D53*
X711200Y826200D02*
D03*
D54*
X894400Y244600D02*
D03*
Y403350D02*
D03*
Y561700D02*
D03*
D55*
X821380Y736350D02*
D03*
D56*
X669920Y902660D02*
D03*
D57*
X259080Y433560D02*
D03*
D58*
X182880Y350520D02*
D03*
D59*
X509270Y828040D02*
D03*
Y811530D02*
D03*
X525780D02*
D03*
Y828040D02*
D03*
X454660Y515620D02*
D03*
X471170D02*
D03*
Y499110D02*
D03*
X454660D02*
D03*
X455930Y676910D02*
D03*
X472440D02*
D03*
Y693420D02*
D03*
X455930D02*
D03*
X454660Y876300D02*
D03*
X471170D02*
D03*
Y859790D02*
D03*
X454660D02*
D03*
X833120Y855980D02*
D03*
X807720D02*
D03*
X779780D02*
D03*
Y828040D02*
D03*
Y802640D02*
D03*
X832866Y884321D02*
D03*
X807466Y886059D02*
D03*
X779526Y884321D02*
D03*
X601980Y116840D02*
D03*
X476250Y107950D02*
D03*
X424180Y476250D02*
D03*
X226060Y398780D02*
D03*
X132103Y391287D02*
D03*
X342900Y109220D02*
D03*
X280670D02*
D03*
X311150D02*
D03*
X182880Y134620D02*
D03*
X120650D02*
D03*
X151130D02*
D03*
X342900Y276860D02*
D03*
X280670D02*
D03*
X312420D02*
D03*
X151130Y266700D02*
D03*
X119380D02*
D03*
X181610D02*
D03*
X833903Y667688D02*
D03*
Y694358D02*
D03*
X808503Y667688D02*
D03*
Y694358D02*
D03*
X259080Y342900D02*
D03*
Y322580D02*
D03*
X780563Y721028D02*
D03*
Y694358D02*
D03*
Y747698D02*
D03*
Y667688D02*
D03*
D60*
X504698Y762000D02*
D03*
X490220Y584200D02*
D03*
X584200Y787400D02*
D03*
X717550Y474980D02*
D03*
Y325120D02*
D03*
X839470Y572770D02*
D03*
Y494030D02*
D03*
X716280Y723900D02*
D03*
Y647700D02*
D03*
X839470Y417830D02*
D03*
Y344170D02*
D03*
X844550Y241300D02*
D03*
Y171450D02*
D03*
X215900Y487680D02*
D03*
X505460Y947420D02*
D03*
X717550Y400050D02*
D03*
Y551180D02*
D03*
M02*
