G04*
G04 #@! TF.GenerationSoftware,Altium Limited,Altium Designer,26.2.0 (7)*
G04*
G04 Layer_Color=65535*
%FSLAX25Y25*%
%MOIN*%
G70*
G04*
G04 #@! TF.SameCoordinates,61BC11FC-F2DE-41EC-9672-5AF9455818F8*
G04*
G04*
G04 #@! TF.FilePolarity,Positive*
G04*
G01*
G75*
%ADD10C,0.00984*%
%ADD11C,0.00787*%
%ADD12C,0.00500*%
%ADD13C,0.00700*%
%ADD14C,0.01500*%
%ADD15C,0.02000*%
%ADD16C,0.01000*%
%ADD17C,0.00600*%
D10*
X117992Y49547D02*
G03*
X117992Y49547I-492J0D01*
G01*
X327992Y405335D02*
G03*
X327992Y405335I-492J0D01*
G01*
X94232Y310000D02*
G03*
X94232Y310000I-492J0D01*
G01*
X203130Y271750D02*
G03*
X203130Y271750I-492J0D01*
G01*
X292146Y322500D02*
G03*
X292146Y322500I-492J0D01*
G01*
X360591Y101417D02*
G03*
X360591Y101417I-492J0D01*
G01*
Y163917D02*
G03*
X360591Y163917I-492J0D01*
G01*
Y226260D02*
G03*
X360591Y226260I-492J0D01*
G01*
X117992Y279665D02*
G03*
X117992Y279665I-492J0D01*
G01*
Y352165D02*
G03*
X117992Y352165I-492J0D01*
G01*
Y207165D02*
G03*
X117992Y207165I-492J0D01*
G01*
X335795Y216902D02*
G03*
X335795Y216902I-492J0D01*
G01*
Y186902D02*
G03*
X335795Y186902I-492J0D01*
G01*
Y156902D02*
G03*
X335795Y156902I-492J0D01*
G01*
Y127902D02*
G03*
X335795Y127902I-492J0D01*
G01*
X94232Y385000D02*
G03*
X94232Y385000I-492J0D01*
G01*
X155268Y332154D02*
G03*
X155268Y332154I-492J0D01*
G01*
X102492Y176205D02*
G03*
X102492Y176205I-492J0D01*
G01*
X85327Y138000D02*
G03*
X85327Y138000I-492J0D01*
G01*
X154492Y261653D02*
G03*
X154492Y261653I-492J0D01*
G01*
X94921Y240000D02*
G03*
X94921Y240000I-492J0D01*
G01*
X155268Y405653D02*
G03*
X155268Y405653I-492J0D01*
G01*
X177992Y52461D02*
G03*
X177992Y52461I-492J0D01*
G01*
X295492Y53327D02*
G03*
X295492Y53327I-492J0D01*
G01*
D11*
X123307Y56831D02*
X138169D01*
X96831D02*
X111693D01*
X96831D02*
Y94232D01*
X138169Y56831D02*
Y94232D01*
X96831D02*
X100768Y98169D01*
X134331D02*
X138268Y94232D01*
X100768Y98169D02*
X111594D01*
X123406D02*
X134232D01*
X336142Y362224D02*
Y402776D01*
X338110Y362224D02*
Y402776D01*
X318819Y362224D02*
Y402776D01*
Y362224D02*
X338110D01*
X318819Y402776D02*
X338110D01*
X188701Y354001D02*
Y368750D01*
X176299Y354001D02*
Y368750D01*
X188201Y211625D02*
Y226375D01*
X175799Y211625D02*
Y226375D01*
X34685Y327716D02*
X91378D01*
X34685Y292284D02*
Y327716D01*
X91378Y319449D02*
Y327716D01*
X34685Y292284D02*
X68347D01*
X85276D02*
X91378D01*
Y300551D01*
X205000Y109250D02*
Y286750D01*
Y109250D02*
X275000D01*
Y286750D01*
X205000D02*
X275000D01*
X252284Y331457D02*
X287717D01*
X249528Y313543D02*
X252284Y331457D01*
X287717D02*
X290472Y313543D01*
X249528D02*
X290472D01*
X346614Y50827D02*
Y99646D01*
X369252D01*
Y50827D02*
Y99646D01*
X346614Y50827D02*
X369252D01*
X346614Y113327D02*
X369252D01*
Y162146D01*
X346614D02*
X369252D01*
X346614Y113327D02*
Y162146D01*
X287492Y123547D02*
X300508D01*
X287492Y132453D02*
X300508D01*
X287650Y182547D02*
X300667D01*
X287650Y191453D02*
X300667D01*
X287492Y212547D02*
X300508D01*
X287492Y221453D02*
X300508D01*
X287650Y152547D02*
X300667D01*
X287650Y161453D02*
X300667D01*
X46114Y65114D02*
Y85783D01*
Y65114D02*
X55169D01*
X52217Y91886D02*
X55169D01*
X46114Y85783D02*
X52217Y91886D01*
X66783D02*
X72886Y85783D01*
X63831Y91886D02*
X66783D01*
X63831Y65114D02*
X72886D01*
Y85783D01*
X154114Y184843D02*
X155886D01*
X154114Y190157D02*
X155886D01*
X346614Y175669D02*
X369252D01*
Y224488D01*
X346614D02*
X369252D01*
X346614Y175669D02*
Y224488D01*
X335354Y77205D02*
Y77795D01*
X329646Y77205D02*
Y77795D01*
X215691Y317669D02*
X226309D01*
X215691Y328331D02*
X226309D01*
X176799Y281625D02*
Y296375D01*
X189201Y281625D02*
Y296375D01*
X106890Y282224D02*
X126181D01*
X106890Y322776D02*
X126181D01*
Y282224D02*
Y322776D01*
X106890Y282224D02*
Y322776D01*
X108858Y282224D02*
Y322776D01*
X106890Y354724D02*
X126181D01*
X106890Y395276D02*
X126181D01*
Y354724D02*
Y395276D01*
X106890Y354724D02*
Y395276D01*
X108858Y354724D02*
Y395276D01*
X106890Y209724D02*
X126181D01*
X106890Y250276D02*
X126181D01*
Y209724D02*
Y250276D01*
X106890Y209724D02*
Y250276D01*
X108858Y209724D02*
Y250276D01*
X292854Y258563D02*
Y259154D01*
X287146Y258563D02*
Y259154D01*
X154606Y164567D02*
X155394D01*
X154606Y160433D02*
X155394D01*
X91378Y367284D02*
Y375551D01*
X85276Y367284D02*
X91378D01*
X34685D02*
X68347D01*
X91378Y394449D02*
Y402716D01*
X34685Y367284D02*
Y402716D01*
X91378D01*
X163732Y290028D02*
Y330972D01*
X145819Y328217D02*
X163732Y330972D01*
X145819Y292783D02*
X163732Y290028D01*
X145819Y292783D02*
Y328217D01*
X150227Y135571D02*
X160094D01*
X150227Y144429D02*
X160094D01*
X133417Y136441D02*
Y178173D01*
X135386Y136441D02*
Y178173D01*
X117276Y136441D02*
Y145693D01*
Y168921D02*
Y178173D01*
Y136441D02*
X135386D01*
X117276Y178173D02*
X135386D01*
X41724Y129358D02*
X82276D01*
X41724Y127390D02*
X82276D01*
X41724Y146681D02*
X82276D01*
X41724Y127390D02*
Y146681D01*
X82276Y127390D02*
Y146681D01*
X162957Y219528D02*
Y260472D01*
X145043Y257716D02*
X162957Y260472D01*
X145043Y222284D02*
X162957Y219528D01*
X145043Y222284D02*
Y257716D01*
X92067Y222284D02*
Y230551D01*
X85965Y222284D02*
X92067D01*
X35374D02*
X69035D01*
X92067Y249449D02*
Y257716D01*
X35374Y222284D02*
Y257716D01*
X92067D01*
X163732Y363528D02*
Y404472D01*
X145819Y401717D02*
X163732Y404472D01*
X145819Y366283D02*
X163732Y363528D01*
X145819Y366283D02*
Y401717D01*
X183898Y58268D02*
X194232D01*
X160768D02*
X171102D01*
X190295Y91732D02*
X194232Y87795D01*
X160840Y87841D02*
X164777Y91778D01*
X194232Y58268D02*
Y87795D01*
X160774Y58327D02*
Y87854D01*
X164705Y91732D02*
X168445D01*
X186653Y91713D02*
X190394D01*
X72803Y165772D02*
X73197D01*
X72803Y162228D02*
X73197D01*
X300905Y76358D02*
X303858Y73405D01*
X286142D02*
X289094Y76358D01*
X286142Y58642D02*
X290079D01*
X299921D02*
X303858D01*
X299921Y76358D02*
X300905D01*
X289094D02*
X290079D01*
X303858Y58642D02*
Y73405D01*
X286142Y58642D02*
Y73405D01*
D12*
X316094Y324067D02*
Y334587D01*
Y273563D02*
Y281130D01*
Y298673D02*
Y312232D01*
Y334587D02*
X387748D01*
X316094Y273563D02*
X387748D01*
Y334587D01*
X321213Y267854D02*
X325937D01*
X323575Y265492D02*
Y270216D01*
X219063Y348095D02*
X229583D01*
X272520D02*
X280087D01*
X241417D02*
X254976D01*
X219063D02*
Y419748D01*
X280087Y348095D02*
Y419748D01*
X219063D02*
X280087D01*
X285795Y353213D02*
Y357937D01*
X283433Y355575D02*
X288158D01*
X54000Y286500D02*
Y289499D01*
X55500D01*
X55999Y288999D01*
Y288000D01*
X55500Y287500D01*
X54000D01*
X56999Y289499D02*
Y286500D01*
Y288000D01*
X58998D01*
Y289499D01*
Y286500D01*
X59998Y288000D02*
X61997D01*
X60998Y288999D02*
Y287000D01*
X367499Y348000D02*
Y346001D01*
X368499Y347000D02*
X366500D01*
X366000Y345001D02*
Y344001D01*
Y344501D01*
X368999D01*
X368499Y345001D01*
X366000Y340502D02*
Y342502D01*
X367999Y340502D01*
X368499D01*
X368999Y341002D01*
Y342002D01*
X368499Y342502D01*
X284500Y398298D02*
Y395299D01*
X285500Y396298D01*
X286499Y395299D01*
Y398298D01*
X287999Y397298D02*
X288999D01*
X289498Y396798D01*
Y395299D01*
X287999D01*
X287499Y395798D01*
X287999Y396298D01*
X289498D01*
X290998Y397798D02*
Y397298D01*
X290498D01*
X291498D01*
X290998D01*
Y395798D01*
X291498Y395299D01*
X294497D02*
X293497D01*
X292997Y395798D01*
Y396798D01*
X293497Y397298D01*
X294497D01*
X294997Y396798D01*
Y396298D01*
X292997D01*
X295996Y397298D02*
Y395299D01*
Y396298D01*
X296496Y396798D01*
X296996Y397298D01*
X297496D01*
X284500Y390500D02*
Y393499D01*
X285999D01*
X286499Y392999D01*
Y391999D01*
X285999Y391499D01*
X284500D01*
X287499Y392499D02*
Y391000D01*
X287999Y390500D01*
X289498D01*
Y392499D01*
X290498Y390500D02*
Y392499D01*
X290998D01*
X291498Y391999D01*
Y390500D01*
Y391999D01*
X291998Y392499D01*
X292497Y391999D01*
Y390500D01*
X293497Y389500D02*
Y392499D01*
X294997D01*
X295496Y391999D01*
Y391000D01*
X294997Y390500D01*
X293497D01*
X53500Y214500D02*
Y217499D01*
X55499Y214500D01*
Y217499D01*
X56499Y216499D02*
Y215000D01*
X56999Y214500D01*
X58498D01*
Y216499D01*
X59998Y216999D02*
Y216499D01*
X59498D01*
X60498D01*
X59998D01*
Y215000D01*
X60498Y214500D01*
X61997Y216499D02*
Y214500D01*
Y215500D01*
X62497Y216000D01*
X62997Y216499D01*
X63497D01*
X64996Y214500D02*
X65996D01*
X65496D01*
Y216499D01*
X64996D01*
X68995Y214500D02*
X67995D01*
X67496Y215000D01*
Y216000D01*
X67995Y216499D01*
X68995D01*
X69495Y216000D01*
Y215500D01*
X67496D01*
X70495Y214500D02*
Y216499D01*
X71994D01*
X72494Y216000D01*
Y214500D01*
X73993Y216999D02*
Y216499D01*
X73493D01*
X74493D01*
X73993D01*
Y215000D01*
X74493Y214500D01*
X373000Y130500D02*
Y133499D01*
X374500D01*
X374999Y132999D01*
Y132000D01*
X374500Y131500D01*
X373000D01*
X375999Y133499D02*
Y130500D01*
Y132000D01*
X377998D01*
Y133499D01*
Y130500D01*
X54500Y357500D02*
Y360499D01*
X55999D01*
X56499Y359999D01*
Y358999D01*
X55999Y358500D01*
X54500D01*
X57499Y360499D02*
Y357500D01*
Y358999D01*
X59498D01*
Y360499D01*
Y357500D01*
X60498Y358999D02*
X62497D01*
X373000Y195999D02*
Y193000D01*
X374000Y194000D01*
X374999Y193000D01*
Y195999D01*
X376499Y194999D02*
X377499D01*
X377998Y194500D01*
Y193000D01*
X376499D01*
X375999Y193500D01*
X376499Y194000D01*
X377998D01*
X379498Y195499D02*
Y194999D01*
X378998D01*
X379998D01*
X379498D01*
Y193500D01*
X379998Y193000D01*
X382997D02*
X381997D01*
X381497Y193500D01*
Y194500D01*
X381997Y194999D01*
X382997D01*
X383497Y194500D01*
Y194000D01*
X381497D01*
X384496Y194999D02*
Y193000D01*
Y194000D01*
X384996Y194500D01*
X385496Y194999D01*
X385996D01*
X374999Y70999D02*
X373000D01*
Y68000D01*
X374999D01*
X373000Y69499D02*
X374000D01*
X377998Y70499D02*
X377499Y70999D01*
X376499D01*
X375999Y70499D01*
Y68500D01*
X376499Y68000D01*
X377499D01*
X377998Y68500D01*
D13*
X299200Y136533D02*
Y139865D01*
Y135866D02*
Y135200D01*
X303199Y139199D02*
X301866D01*
X302532D01*
Y135866D01*
X301866Y135200D01*
X301199D01*
X300533Y135866D01*
X306531Y135200D02*
Y139199D01*
X304532Y137199D01*
X307197D01*
X308530Y136533D02*
Y139865D01*
Y135866D02*
Y135200D01*
X298200Y196033D02*
Y199365D01*
Y195367D02*
Y194700D01*
X302199Y198699D02*
X300866D01*
X301532D01*
Y195367D01*
X300866Y194700D01*
X300199D01*
X299533Y195367D01*
X306197Y194700D02*
X303532D01*
X306197Y197366D01*
Y198032D01*
X305531Y198699D01*
X304198D01*
X303532Y198032D01*
X307530Y196033D02*
Y199365D01*
Y195367D02*
Y194700D01*
X298700Y226033D02*
Y229365D01*
Y225366D02*
Y224700D01*
X302699Y228699D02*
X301366D01*
X302032D01*
Y225366D01*
X301366Y224700D01*
X300699D01*
X300033Y225366D01*
X304032Y224700D02*
X305364D01*
X304698D01*
Y228699D01*
X304032Y228032D01*
X307364Y226033D02*
Y229365D01*
Y225366D02*
Y224700D01*
X300700Y166033D02*
Y169365D01*
Y165366D02*
Y164700D01*
X304699Y168699D02*
X303366D01*
X304032D01*
Y165366D01*
X303366Y164700D01*
X302699D01*
X302033Y165366D01*
X306032Y168032D02*
X306698Y168699D01*
X308031D01*
X308697Y168032D01*
Y167366D01*
X308031Y166699D01*
X307365D01*
X308031D01*
X308697Y166033D01*
Y165366D01*
X308031Y164700D01*
X306698D01*
X306032Y165366D01*
X310030Y166033D02*
Y169365D01*
Y165366D02*
Y164700D01*
X285800Y135900D02*
Y139899D01*
X287799D01*
X288466Y139232D01*
Y137899D01*
X287799Y137233D01*
X285800D01*
X287133D02*
X288466Y135900D01*
X289799D02*
X291132D01*
X290465D01*
Y139899D01*
X289799Y139232D01*
X293131Y135900D02*
X294464D01*
X293797D01*
Y139899D01*
X293131Y139232D01*
X286000Y164900D02*
Y168899D01*
X287999D01*
X288666Y168232D01*
Y166899D01*
X287999Y166233D01*
X286000D01*
X287333D02*
X288666Y164900D01*
X289999D02*
X291332D01*
X290665D01*
Y168899D01*
X289999Y168232D01*
X293331D02*
X293997Y168899D01*
X295330D01*
X295997Y168232D01*
Y165567D01*
X295330Y164900D01*
X293997D01*
X293331Y165567D01*
Y168232D01*
X286000Y194900D02*
Y198899D01*
X287999D01*
X288666Y198232D01*
Y196899D01*
X287999Y196233D01*
X286000D01*
X287333D02*
X288666Y194900D01*
X289999Y195566D02*
X290665Y194900D01*
X291998D01*
X292665Y195566D01*
Y198232D01*
X291998Y198899D01*
X290665D01*
X289999Y198232D01*
Y197566D01*
X290665Y196899D01*
X292665D01*
X285800Y224900D02*
Y228899D01*
X287799D01*
X288466Y228232D01*
Y226899D01*
X287799Y226233D01*
X285800D01*
X287133D02*
X288466Y224900D01*
X289799Y228232D02*
X290465Y228899D01*
X291798D01*
X292464Y228232D01*
Y227566D01*
X291798Y226899D01*
X292464Y226233D01*
Y225566D01*
X291798Y224900D01*
X290465D01*
X289799Y225566D01*
Y226233D01*
X290465Y226899D01*
X289799Y227566D01*
Y228232D01*
X290465Y226899D02*
X291798D01*
X312900Y139499D02*
Y135500D01*
X314899D01*
X315566Y136167D01*
Y138832D01*
X314899Y139499D01*
X312900D01*
X316899Y136167D02*
X317565Y135500D01*
X318898D01*
X319565Y136167D01*
Y138832D01*
X318898Y139499D01*
X317565D01*
X316899Y138832D01*
Y138166D01*
X317565Y137499D01*
X319565D01*
X312900Y168499D02*
Y164500D01*
X314899D01*
X315566Y165166D01*
Y167832D01*
X314899Y168499D01*
X312900D01*
X316899Y167832D02*
X317565Y168499D01*
X318898D01*
X319565Y167832D01*
Y167166D01*
X318898Y166499D01*
X319565Y165833D01*
Y165166D01*
X318898Y164500D01*
X317565D01*
X316899Y165166D01*
Y165833D01*
X317565Y166499D01*
X316899Y167166D01*
Y167832D01*
X317565Y166499D02*
X318898D01*
X312900Y198499D02*
Y194500D01*
X314899D01*
X315566Y195167D01*
Y197832D01*
X314899Y198499D01*
X312900D01*
X316899D02*
X319565D01*
Y197832D01*
X316899Y195167D01*
Y194500D01*
X312900Y228499D02*
Y224500D01*
X314899D01*
X315566Y225166D01*
Y227832D01*
X314899Y228499D01*
X312900D01*
X319565D02*
X318232Y227832D01*
X316899Y226499D01*
Y225166D01*
X317565Y224500D01*
X318898D01*
X319565Y225166D01*
Y225833D01*
X318898Y226499D01*
X316899D01*
D14*
X77500Y408500D02*
Y414498D01*
X80499D01*
X81499Y413498D01*
Y411499D01*
X80499Y410499D01*
X77500D01*
X83498Y414498D02*
Y409500D01*
X84498Y408500D01*
X86497D01*
X87497Y409500D01*
Y414498D01*
X89496Y408500D02*
Y414498D01*
X91496Y412499D01*
X93495Y414498D01*
Y408500D01*
X95494D02*
Y414498D01*
X98493D01*
X99493Y413498D01*
Y411499D01*
X98493Y410499D01*
X95494D01*
X105491Y413498D02*
X104491Y414498D01*
X102492D01*
X101492Y413498D01*
Y412499D01*
X102492Y411499D01*
X104491D01*
X105491Y410499D01*
Y409500D01*
X104491Y408500D01*
X102492D01*
X101492Y409500D01*
X335499Y241498D02*
X334499Y242498D01*
X332500D01*
X331500Y241498D01*
Y240499D01*
X332500Y239499D01*
X334499D01*
X335499Y238499D01*
Y237500D01*
X334499Y236500D01*
X332500D01*
X331500Y237500D01*
X341497Y242498D02*
X337498D01*
Y236500D01*
X341497D01*
X337498Y239499D02*
X339497D01*
X343496Y236500D02*
Y242498D01*
X347495Y236500D01*
Y242498D01*
X353493Y241498D02*
X352493Y242498D01*
X350494D01*
X349494Y241498D01*
Y240499D01*
X350494Y239499D01*
X352493D01*
X353493Y238499D01*
Y237500D01*
X352493Y236500D01*
X350494D01*
X349494Y237500D01*
X358491Y242498D02*
X356492D01*
X355492Y241498D01*
Y237500D01*
X356492Y236500D01*
X358491D01*
X359491Y237500D01*
Y241498D01*
X358491Y242498D01*
X361490Y236500D02*
Y242498D01*
X364489D01*
X365489Y241498D01*
Y239499D01*
X364489Y238499D01*
X361490D01*
X363490D02*
X365489Y236500D01*
X371487Y241498D02*
X370487Y242498D01*
X368488D01*
X367488Y241498D01*
Y240499D01*
X368488Y239499D01*
X370487D01*
X371487Y238499D01*
Y237500D01*
X370487Y236500D01*
X368488D01*
X367488Y237500D01*
D15*
X230689Y83795D02*
X224500D01*
Y73797D01*
X230689D01*
X224500Y79034D02*
X228309D01*
X232355Y78558D02*
X236640D01*
X238069Y79034D01*
X238545Y79510D01*
X239021Y80463D01*
Y81891D01*
X238545Y82843D01*
X238069Y83319D01*
X236640Y83795D01*
X232355D01*
Y73797D01*
X241258Y83795D02*
Y73797D01*
X250494Y81415D02*
X250018Y82367D01*
X249066Y83319D01*
X248114Y83795D01*
X246210D01*
X245257Y83319D01*
X244305Y82367D01*
X243829Y81415D01*
X243353Y79987D01*
Y77606D01*
X243829Y76178D01*
X244305Y75226D01*
X245257Y74274D01*
X246210Y73797D01*
X248114D01*
X249066Y74274D01*
X250018Y75226D01*
X250494Y76178D01*
X259969Y82367D02*
X259016Y83319D01*
X257588Y83795D01*
X255684D01*
X254256Y83319D01*
X253303Y82367D01*
Y81415D01*
X253779Y80463D01*
X254256Y79987D01*
X255208Y79510D01*
X258064Y78558D01*
X259016Y78082D01*
X259492Y77606D01*
X259969Y76654D01*
Y75226D01*
X259016Y74274D01*
X257588Y73797D01*
X255684D01*
X254256Y74274D01*
X253303Y75226D01*
X232117Y57000D02*
X228309Y66998D01*
X224500Y57000D01*
X225928Y60333D02*
X230689D01*
X241115Y65570D02*
X240163Y66522D01*
X238735Y66998D01*
X236831D01*
X235402Y66522D01*
X234450Y65570D01*
Y64617D01*
X234926Y63665D01*
X235402Y63189D01*
X236355Y62713D01*
X239211Y61761D01*
X240163Y61285D01*
X240639Y60809D01*
X241115Y59856D01*
Y58428D01*
X240163Y57476D01*
X238735Y57000D01*
X236831D01*
X235402Y57476D01*
X234450Y58428D01*
X243353Y66998D02*
Y57000D01*
Y66998D02*
X247162Y57000D01*
X250971Y66998D02*
X247162Y57000D01*
X250971Y66998D02*
Y57000D01*
X260016Y66998D02*
X253827D01*
Y57000D01*
X260016D01*
X253827Y62237D02*
X257636D01*
D16*
X92500Y113499D02*
X91501Y114499D01*
X89501D01*
X88502Y113499D01*
Y109501D01*
X89501Y108501D01*
X91501D01*
X92500Y109501D01*
X98498Y108501D02*
X94500D01*
X98498Y112500D01*
Y113499D01*
X97499Y114499D01*
X95499D01*
X94500Y113499D01*
X39199Y337198D02*
X37199D01*
X38199D01*
Y332200D01*
X37199Y331200D01*
X36200D01*
X35200Y332200D01*
X45197Y331200D02*
X41198D01*
X45197Y335199D01*
Y336198D01*
X44197Y337198D01*
X42198D01*
X41198Y336198D01*
X178002Y235501D02*
Y241499D01*
X181001D01*
X182000Y240499D01*
Y238500D01*
X181001Y237500D01*
X178002D01*
X180001D02*
X182000Y235501D01*
X184000Y241499D02*
X187998D01*
Y240499D01*
X184000Y236501D01*
Y235501D01*
X178002Y306001D02*
Y311999D01*
X181001D01*
X182000Y310999D01*
Y309000D01*
X181001Y308000D01*
X178002D01*
X180001D02*
X182000Y306001D01*
X187998Y311999D02*
X185999Y310999D01*
X184000Y309000D01*
Y307001D01*
X184999Y306001D01*
X186999D01*
X187998Y307001D01*
Y308000D01*
X186999Y309000D01*
X184000D01*
X214050Y335001D02*
Y340999D01*
X217049D01*
X218048Y339999D01*
Y338000D01*
X217049Y337000D01*
X214050D01*
X216049D02*
X218048Y335001D01*
X224046Y340999D02*
X220048D01*
Y338000D01*
X222047Y339000D01*
X223047D01*
X224046Y338000D01*
Y336001D01*
X223047Y335001D01*
X221047D01*
X220048Y336001D01*
X177502Y378501D02*
Y384499D01*
X180501D01*
X181500Y383499D01*
Y381500D01*
X180501Y380500D01*
X177502D01*
X179501D02*
X181500Y378501D01*
X186499D02*
Y384499D01*
X183500Y381500D01*
X187498D01*
X106900Y260398D02*
Y254400D01*
X109899D01*
X110899Y255400D01*
Y259398D01*
X109899Y260398D01*
X106900D01*
X116897D02*
X112898D01*
Y257399D01*
X114897Y258399D01*
X115897D01*
X116897Y257399D01*
Y255400D01*
X115897Y254400D01*
X113898D01*
X112898Y255400D01*
X106900Y332898D02*
Y326900D01*
X109899D01*
X110899Y327900D01*
Y331898D01*
X109899Y332898D01*
X106900D01*
X115897Y326900D02*
Y332898D01*
X112898Y329899D01*
X116897D01*
X318800Y415298D02*
Y409300D01*
X321799D01*
X322799Y410300D01*
Y414298D01*
X321799Y415298D01*
X318800D01*
X324798Y414298D02*
X325798Y415298D01*
X327797D01*
X328797Y414298D01*
Y413299D01*
X327797Y412299D01*
X326797D01*
X327797D01*
X328797Y411299D01*
Y410300D01*
X327797Y409300D01*
X325798D01*
X324798Y410300D01*
X106900Y405398D02*
Y399400D01*
X109899D01*
X110899Y400400D01*
Y404398D01*
X109899Y405398D01*
X106900D01*
X116897Y399400D02*
X112898D01*
X116897Y403399D01*
Y404398D01*
X115897Y405398D01*
X113898D01*
X112898Y404398D01*
X47500Y116999D02*
X46500Y117999D01*
X44501D01*
X43501Y116999D01*
Y113001D01*
X44501Y112001D01*
X46500D01*
X47500Y113001D01*
X49499Y112001D02*
X51499D01*
X50499D01*
Y117999D01*
X49499Y116999D01*
X164399Y104098D02*
X163399Y105098D01*
X161400D01*
X160400Y104098D01*
Y100100D01*
X161400Y99100D01*
X163399D01*
X164399Y100100D01*
X166398Y104098D02*
X167398Y105098D01*
X169397D01*
X170397Y104098D01*
Y103099D01*
X169397Y102099D01*
X168397D01*
X169397D01*
X170397Y101099D01*
Y100100D01*
X169397Y99100D01*
X167398D01*
X166398Y100100D01*
X289799Y88698D02*
X288799Y89698D01*
X286800D01*
X285800Y88698D01*
Y84700D01*
X286800Y83700D01*
X288799D01*
X289799Y84700D01*
X294797Y83700D02*
Y89698D01*
X291798Y86699D01*
X295797D01*
X70000Y203499D02*
X69001Y204499D01*
X67001D01*
X66002Y203499D01*
Y199501D01*
X67001Y198501D01*
X69001D01*
X70000Y199501D01*
X75998Y204499D02*
X72000D01*
Y201500D01*
X73999Y202500D01*
X74999D01*
X75998Y201500D01*
Y199501D01*
X74999Y198501D01*
X72999D01*
X72000Y199501D01*
X319000Y79999D02*
X318001Y80999D01*
X316001D01*
X315002Y79999D01*
Y76001D01*
X316001Y75001D01*
X318001D01*
X319000Y76001D01*
X324998Y80999D02*
X322999Y79999D01*
X321000Y78000D01*
Y76001D01*
X321999Y75001D01*
X323999D01*
X324998Y76001D01*
Y77000D01*
X323999Y78000D01*
X321000D01*
X289000Y246999D02*
X288001Y247999D01*
X286001D01*
X285002Y246999D01*
Y243001D01*
X286001Y242001D01*
X288001D01*
X289000Y243001D01*
X291000Y247999D02*
X294998D01*
Y246999D01*
X291000Y243001D01*
Y242001D01*
X289000Y296243D02*
X288001Y297243D01*
X286001D01*
X285002Y296243D01*
Y292245D01*
X286001Y291245D01*
X288001D01*
X289000Y292245D01*
X291000Y296243D02*
X291999Y297243D01*
X293999D01*
X294998Y296243D01*
Y295244D01*
X293999Y294244D01*
X294998Y293244D01*
Y292245D01*
X293999Y291245D01*
X291999D01*
X291000Y292245D01*
Y293244D01*
X291999Y294244D01*
X291000Y295244D01*
Y296243D01*
X291999Y294244D02*
X293999D01*
X319000Y104499D02*
X318001Y105499D01*
X316001D01*
X315002Y104499D01*
Y100501D01*
X316001Y99501D01*
X318001D01*
X319000Y100501D01*
X321000D02*
X321999Y99501D01*
X323999D01*
X324998Y100501D01*
Y104499D01*
X323999Y105499D01*
X321999D01*
X321000Y104499D01*
Y103500D01*
X321999Y102500D01*
X324998D01*
X41600Y156698D02*
Y150700D01*
X44599D01*
X45599Y151700D01*
Y155698D01*
X44599Y156698D01*
X41600D01*
X47598Y150700D02*
X49597D01*
X48598D01*
Y156698D01*
X47598Y155698D01*
X39199Y412198D02*
X37199D01*
X38199D01*
Y407200D01*
X37199Y406200D01*
X36200D01*
X35200Y407200D01*
X41198Y406200D02*
X43197D01*
X42198D01*
Y412198D01*
X41198Y411198D01*
X39899Y267198D02*
X37899D01*
X38899D01*
Y262200D01*
X37899Y261200D01*
X36900D01*
X35900Y262200D01*
X41898Y266198D02*
X42898Y267198D01*
X44897D01*
X45897Y266198D01*
Y265199D01*
X44897Y264199D01*
X43897D01*
X44897D01*
X45897Y263199D01*
Y262200D01*
X44897Y261200D01*
X42898D01*
X41898Y262200D01*
X150400Y153798D02*
Y147800D01*
X154399D01*
X156398D02*
X158397D01*
X157398D01*
Y153798D01*
X156398Y152798D01*
X149999Y410600D02*
Y414598D01*
X148999Y415598D01*
X147000D01*
X146000Y414598D01*
Y410600D01*
X147000Y409600D01*
X148999D01*
X147999Y411599D02*
X149999Y409600D01*
X148999D02*
X149999Y410600D01*
X151998Y409600D02*
X153997D01*
X152998D01*
Y415598D01*
X151998Y414598D01*
X149999Y337100D02*
Y341098D01*
X148999Y342098D01*
X147000D01*
X146000Y341098D01*
Y337100D01*
X147000Y336100D01*
X148999D01*
X147999Y338099D02*
X149999Y336100D01*
X148999D02*
X149999Y337100D01*
X155997Y336100D02*
X151998D01*
X155997Y340099D01*
Y341098D01*
X154997Y342098D01*
X152998D01*
X151998Y341098D01*
X149299Y266600D02*
Y270598D01*
X148299Y271598D01*
X146300D01*
X145300Y270598D01*
Y266600D01*
X146300Y265600D01*
X148299D01*
X147299Y267599D02*
X149299Y265600D01*
X148299D02*
X149299Y266600D01*
X151298Y270598D02*
X152298Y271598D01*
X154297D01*
X155297Y270598D01*
Y269599D01*
X154297Y268599D01*
X153297D01*
X154297D01*
X155297Y267599D01*
Y266600D01*
X154297Y265600D01*
X152298D01*
X151298Y266600D01*
X289000Y336001D02*
Y339999D01*
X288001Y340999D01*
X286001D01*
X285002Y339999D01*
Y336001D01*
X286001Y335001D01*
X288001D01*
X287001Y337000D02*
X289000Y335001D01*
X288001D02*
X289000Y336001D01*
X293999Y335001D02*
Y340999D01*
X291000Y338000D01*
X294998D01*
X150800Y168700D02*
Y174698D01*
X153799D01*
X154799Y173698D01*
Y171699D01*
X153799Y170699D01*
X150800D01*
X152799D02*
X154799Y168700D01*
X156798D02*
X158797D01*
X157798D01*
Y174698D01*
X156798Y173698D01*
X66200Y171200D02*
Y177198D01*
X69199D01*
X70199Y176198D01*
Y174199D01*
X69199Y173199D01*
X66200D01*
X68199D02*
X70199Y171200D01*
X76197D02*
X72198D01*
X76197Y175199D01*
Y176198D01*
X75197Y177198D01*
X73198D01*
X72198Y176198D01*
X149300Y193900D02*
Y199898D01*
X152299D01*
X153299Y198898D01*
Y196899D01*
X152299Y195899D01*
X149300D01*
X151299D02*
X153299Y193900D01*
X155298Y198898D02*
X156298Y199898D01*
X158297D01*
X159297Y198898D01*
Y197899D01*
X158297Y196899D01*
X157297D01*
X158297D01*
X159297Y195899D01*
Y194900D01*
X158297Y193900D01*
X156298D01*
X155298Y194900D01*
X97800Y188198D02*
Y183200D01*
X98800Y182200D01*
X100799D01*
X101799Y183200D01*
Y188198D01*
X103798Y182200D02*
X105797D01*
X104798D01*
Y188198D01*
X103798Y187198D01*
X378999Y346999D02*
X373001Y343000D01*
X378999D02*
X373001Y346999D01*
Y341001D02*
Y339001D01*
Y340001D01*
X378999D01*
X377999Y341001D01*
X283750Y408377D02*
X287748Y402379D01*
Y408377D02*
X283750Y402379D01*
X293746D02*
X289748D01*
X293746Y406378D01*
Y407377D01*
X292747Y408377D01*
X290747D01*
X289748Y407377D01*
X376500Y82999D02*
X374501D01*
X375501D01*
Y78001D01*
X374501Y77001D01*
X373501D01*
X372502Y78001D01*
X381499Y77001D02*
Y82999D01*
X378500Y80000D01*
X382498D01*
X376500Y145657D02*
X374501D01*
X375501D01*
Y140658D01*
X374501Y139658D01*
X373501D01*
X372502Y140658D01*
X382498Y145657D02*
X378500D01*
Y142657D01*
X380499Y143657D01*
X381499D01*
X382498Y142657D01*
Y140658D01*
X381499Y139658D01*
X379499D01*
X378500Y140658D01*
X376500Y207999D02*
X374501D01*
X375501D01*
Y203001D01*
X374501Y202001D01*
X373501D01*
X372502Y203001D01*
X382498Y207999D02*
X380499Y206999D01*
X378500Y205000D01*
Y203001D01*
X379499Y202001D01*
X381499D01*
X382498Y203001D01*
Y204000D01*
X381499Y205000D01*
X378500D01*
X202700Y290500D02*
Y296498D01*
X204699Y294499D01*
X206699Y296498D01*
Y290500D01*
X208698Y296498D02*
Y290500D01*
X211697D01*
X212697Y291500D01*
Y295498D01*
X211697Y296498D01*
X208698D01*
X214696Y290500D02*
X216695D01*
X215696D01*
Y296498D01*
X214696Y295498D01*
D17*
X52887Y113557D02*
X57000D01*
X54943Y111500D02*
Y115613D01*
M02*
