G04*
G04 #@! TF.GenerationSoftware,Altium Limited,Altium Designer,26.2.0 (7)*
G04*
G04 Layer_Color=65535*
%FSLAX44Y44*%
%MOMM*%
G71*
G04*
G04 #@! TF.SameCoordinates,A9467F49-E33E-4DBB-8375-5E2D0BBE018A*
G04*
G04*
G04 #@! TF.FilePolarity,Positive*
G04*
G01*
G75*
%ADD10C,0.2500*%
%ADD11C,0.2000*%
%ADD12C,0.1270*%
%ADD13C,0.1778*%
%ADD14C,0.5080*%
%ADD15C,0.3810*%
%ADD16C,0.2540*%
%ADD17C,0.1524*%
D10*
X833100Y1029550D02*
G03*
X833100Y1029550I-1250J0D01*
G01*
X239350Y787400D02*
G03*
X239350Y787400I-1250J0D01*
G01*
X515950Y690245D02*
G03*
X515950Y690245I-1250J0D01*
G01*
X742050Y819150D02*
G03*
X742050Y819150I-1250J0D01*
G01*
X915900Y257600D02*
G03*
X915900Y257600I-1250J0D01*
G01*
Y416350D02*
G03*
X915900Y416350I-1250J0D01*
G01*
X312400Y122040D02*
G03*
X312400Y122040I-1250J0D01*
G01*
X915900Y574700D02*
G03*
X915900Y574700I-1250J0D01*
G01*
X299700Y710350D02*
G03*
X299700Y710350I-1250J0D01*
G01*
Y894500D02*
G03*
X299700Y894500I-1250J0D01*
G01*
Y526200D02*
G03*
X299700Y526200I-1250J0D01*
G01*
X852920Y550930D02*
G03*
X852920Y550930I-1250J0D01*
G01*
Y474730D02*
G03*
X852920Y474730I-1250J0D01*
G01*
Y398530D02*
G03*
X852920Y398530I-1250J0D01*
G01*
Y324870D02*
G03*
X852920Y324870I-1250J0D01*
G01*
X239350Y977900D02*
G03*
X239350Y977900I-1250J0D01*
G01*
X394380Y843670D02*
G03*
X394380Y843670I-1250J0D01*
G01*
X260330Y447560D02*
G03*
X260330Y447560I-1250J0D01*
G01*
X216730Y350520D02*
G03*
X216730Y350520I-1250J0D01*
G01*
X392410Y664600D02*
G03*
X392410Y664600I-1250J0D01*
G01*
X241100Y609600D02*
G03*
X241100Y609600I-1250J0D01*
G01*
X394380Y1030360D02*
G03*
X394380Y1030360I-1250J0D01*
G01*
X477500Y126900D02*
G03*
X477500Y126900I-1250J0D01*
G01*
X603230Y134460D02*
G03*
X603230Y134460I-1250J0D01*
G01*
D11*
X853800Y920050D02*
Y1023050D01*
X858800Y920050D02*
Y1023050D01*
X809800Y920050D02*
Y1023050D01*
Y920050D02*
X858800D01*
X809800Y1023050D02*
X858800D01*
X479300Y899162D02*
Y936626D01*
X447800Y899162D02*
Y936626D01*
X478030Y537528D02*
Y574992D01*
X446530Y537528D02*
Y574992D01*
X88100Y832400D02*
X232100D01*
X88100Y742400D02*
Y832400D01*
X232100Y811400D02*
Y832400D01*
X88100Y742400D02*
X173600D01*
X216600D02*
X232100D01*
Y763400D01*
X520700Y277495D02*
Y728345D01*
Y277495D02*
X698500D01*
Y728345D01*
X520700D02*
X698500D01*
X640800Y841900D02*
X730800D01*
X633800Y796400D02*
X640800Y841900D01*
X730800D02*
X737800Y796400D01*
X633800D02*
X737800D01*
X880400Y129100D02*
Y253100D01*
X937900D01*
Y129100D02*
Y253100D01*
X880400Y129100D02*
X937900D01*
X880400Y287850D02*
X937900D01*
Y411850D01*
X880400D02*
X937900D01*
X880400Y287850D02*
Y411850D01*
X730229Y313809D02*
X763291D01*
X730229Y336431D02*
X763291D01*
X730631Y463669D02*
X763693D01*
X730631Y486291D02*
X763693D01*
X730229Y539869D02*
X763291D01*
X730229Y562491D02*
X763291D01*
X730631Y387469D02*
X763693D01*
X730631Y410091D02*
X763693D01*
X326150Y245540D02*
X353650D01*
X268650D02*
X296150D01*
X353900D02*
X363900Y235540D01*
X258650D02*
X268650Y245540D01*
X363650Y140540D02*
Y235540D01*
X258650Y140540D02*
Y235540D01*
Y140540D02*
X296400D01*
X325900D02*
X363650D01*
X117130Y165390D02*
Y217890D01*
Y165390D02*
X140130D01*
X132630Y233390D02*
X140130D01*
X117130Y217890D02*
X132630Y233390D01*
X169630D02*
X185130Y217890D01*
X162130Y233390D02*
X169630D01*
X162130Y165390D02*
X185130D01*
Y217890D01*
X391450Y469500D02*
X395950D01*
X391450Y483000D02*
X395950D01*
X880400Y446200D02*
X937900D01*
Y570200D01*
X880400D02*
X937900D01*
X880400Y446200D02*
Y570200D01*
X851800Y196100D02*
Y197600D01*
X837300Y196100D02*
Y197600D01*
X547855Y806879D02*
X574825D01*
X547855Y833961D02*
X574825D01*
X449070Y715328D02*
Y752792D01*
X480570Y715328D02*
Y752792D01*
X271500Y716850D02*
X320500D01*
X271500Y819850D02*
X320500D01*
Y716850D02*
Y819850D01*
X271500Y716850D02*
Y819850D01*
X276500Y716850D02*
Y819850D01*
X271500Y901000D02*
X320500D01*
X271500Y1004000D02*
X320500D01*
Y901000D02*
Y1004000D01*
X271500Y901000D02*
Y1004000D01*
X276500Y901000D02*
Y1004000D01*
X271500Y532700D02*
X320500D01*
X271500Y635700D02*
X320500D01*
Y532700D02*
Y635700D01*
X271500Y532700D02*
Y635700D01*
X276500Y532700D02*
Y635700D01*
X743850Y656750D02*
Y658250D01*
X729350Y656750D02*
Y658250D01*
X392700Y418000D02*
X394700D01*
X392700Y407500D02*
X394700D01*
X232100Y932900D02*
Y953900D01*
X216600Y932900D02*
X232100D01*
X88100D02*
X173600D01*
X232100Y1001900D02*
Y1022900D01*
X88100Y932900D02*
Y1022900D01*
X232100D01*
X415880Y736670D02*
Y840670D01*
X370380Y833670D02*
X415880Y840670D01*
X370380Y743670D02*
X415880Y736670D01*
X370380Y743670D02*
Y833670D01*
X381578Y344350D02*
X406640D01*
X381578Y366850D02*
X406640D01*
X338880Y346560D02*
Y452560D01*
X343880Y346560D02*
Y452560D01*
X297880Y346560D02*
Y370060D01*
Y429060D02*
Y452560D01*
Y346560D02*
X343880D01*
X297880Y452560D02*
X343880D01*
X105980Y328570D02*
X208980D01*
X105980Y323570D02*
X208980D01*
X105980Y372570D02*
X208980D01*
X105980Y323570D02*
Y372570D01*
X208980Y323570D02*
Y372570D01*
X413910Y557600D02*
Y661600D01*
X368410Y654600D02*
X413910Y661600D01*
X368410Y564600D02*
X413910Y557600D01*
X368410Y564600D02*
Y654600D01*
X233850Y564600D02*
Y585600D01*
X218350Y564600D02*
X233850D01*
X89850D02*
X175350D01*
X233850Y633600D02*
Y654600D01*
X89850Y564600D02*
Y654600D01*
X233850D01*
X415880Y923360D02*
Y1027360D01*
X370380Y1020360D02*
X415880Y1027360D01*
X370380Y930360D02*
X415880Y923360D01*
X370380Y930360D02*
Y1020360D01*
X492500Y141650D02*
X518750D01*
X433750D02*
X460000D01*
X508750Y226650D02*
X518750Y216650D01*
X433933Y216767D02*
X443933Y226767D01*
X518750Y141650D02*
Y216650D01*
X433767Y141800D02*
Y216800D01*
X443750Y226650D02*
X453250D01*
X499500Y226600D02*
X509000D01*
X184920Y421060D02*
X185920D01*
X184920Y412060D02*
X185920D01*
X616980Y192960D02*
X624480Y185460D01*
X579480D02*
X586980Y192960D01*
X579480Y147960D02*
X589480D01*
X614480D02*
X624480D01*
X614480Y192960D02*
X616980D01*
X586980D02*
X589480D01*
X624480Y147960D02*
Y185460D01*
X579480Y147960D02*
Y185460D01*
D12*
X802880Y823130D02*
Y849850D01*
Y694850D02*
Y714070D01*
Y758630D02*
Y793070D01*
Y849850D02*
X984880D01*
X802880Y694850D02*
X984880D01*
Y849850D01*
X815880Y680350D02*
X827880D01*
X821880Y674350D02*
Y686350D01*
X556420Y884160D02*
X583140D01*
X692200D02*
X711420D01*
X613200D02*
X647640D01*
X556420D02*
Y1066160D01*
X711420Y884160D02*
Y1066160D01*
X556420D02*
X711420D01*
X725920Y897160D02*
Y909160D01*
X719920Y903160D02*
X731920D01*
X138430Y908050D02*
Y915667D01*
X142239D01*
X143508Y914398D01*
Y911859D01*
X142239Y910589D01*
X138430D01*
X146047Y915667D02*
Y908050D01*
Y911859D01*
X151126D01*
Y915667D01*
Y908050D01*
X153665Y911859D02*
X158743D01*
X947420Y331470D02*
Y339087D01*
X951229D01*
X952498Y337818D01*
Y335279D01*
X951229Y334009D01*
X947420D01*
X955038Y339087D02*
Y331470D01*
Y335279D01*
X960116D01*
Y339087D01*
Y331470D01*
X933449Y883920D02*
Y878842D01*
X935988Y881381D02*
X930910D01*
X929640Y876302D02*
Y873763D01*
Y875033D01*
X937258D01*
X935988Y876302D01*
X929640Y864876D02*
Y869955D01*
X934718Y864876D01*
X935988D01*
X937258Y866146D01*
Y868685D01*
X935988Y869955D01*
X137160Y727710D02*
Y735328D01*
X140969D01*
X142238Y734058D01*
Y731519D01*
X140969Y730249D01*
X137160D01*
X144777Y735328D02*
Y727710D01*
Y731519D01*
X149856D01*
Y735328D01*
Y727710D01*
X152395Y731519D02*
X157473D01*
X154934Y734058D02*
Y728980D01*
X722630Y1011676D02*
Y1004058D01*
X725169Y1006597D01*
X727708Y1004058D01*
Y1011676D01*
X731517Y1009137D02*
X734056D01*
X735326Y1007867D01*
Y1004058D01*
X731517D01*
X730247Y1005328D01*
X731517Y1006597D01*
X735326D01*
X739135Y1010406D02*
Y1009137D01*
X737865D01*
X740404D01*
X739135D01*
Y1005328D01*
X740404Y1004058D01*
X748022D02*
X745483D01*
X744213Y1005328D01*
Y1007867D01*
X745483Y1009137D01*
X748022D01*
X749291Y1007867D01*
Y1006597D01*
X744213D01*
X751831Y1009137D02*
Y1004058D01*
Y1006597D01*
X753100Y1007867D01*
X754370Y1009137D01*
X755639D01*
X722630Y991869D02*
Y999487D01*
X726439D01*
X727708Y998217D01*
Y995678D01*
X726439Y994408D01*
X722630D01*
X730247Y996947D02*
Y993139D01*
X731517Y991869D01*
X735326D01*
Y996947D01*
X737865Y991869D02*
Y996947D01*
X739135D01*
X740404Y995678D01*
Y991869D01*
Y995678D01*
X741674Y996947D01*
X742943Y995678D01*
Y991869D01*
X745483Y989330D02*
Y996947D01*
X749291D01*
X750561Y995678D01*
Y993139D01*
X749291Y991869D01*
X745483D01*
X947420Y497837D02*
Y490220D01*
X949959Y492759D01*
X952498Y490220D01*
Y497837D01*
X956307Y495298D02*
X958846D01*
X960116Y494029D01*
Y490220D01*
X956307D01*
X955038Y491490D01*
X956307Y492759D01*
X960116D01*
X963925Y496568D02*
Y495298D01*
X962655D01*
X965194D01*
X963925D01*
Y491490D01*
X965194Y490220D01*
X972812D02*
X970273D01*
X969003Y491490D01*
Y494029D01*
X970273Y495298D01*
X972812D01*
X974081Y494029D01*
Y492759D01*
X969003D01*
X976621Y495298D02*
Y490220D01*
Y492759D01*
X977890Y494029D01*
X979160Y495298D01*
X980429D01*
X952498Y180338D02*
X947420D01*
Y172720D01*
X952498D01*
X947420Y176529D02*
X949959D01*
X960116Y179068D02*
X958846Y180338D01*
X956307D01*
X955038Y179068D01*
Y173990D01*
X956307Y172720D01*
X958846D01*
X960116Y173990D01*
X135890Y544830D02*
Y552448D01*
X140968Y544830D01*
Y552448D01*
X143507Y549908D02*
Y546100D01*
X144777Y544830D01*
X148586D01*
Y549908D01*
X152395Y551178D02*
Y549908D01*
X151125D01*
X153664D01*
X152395D01*
Y546100D01*
X153664Y544830D01*
X157473Y549908D02*
Y544830D01*
Y547369D01*
X158743Y548639D01*
X160012Y549908D01*
X161282D01*
X165091Y544830D02*
X167630D01*
X166360D01*
Y549908D01*
X165091D01*
X175247Y544830D02*
X172708D01*
X171439Y546100D01*
Y548639D01*
X172708Y549908D01*
X175247D01*
X176517Y548639D01*
Y547369D01*
X171439D01*
X179056Y544830D02*
Y549908D01*
X182865D01*
X184134Y548639D01*
Y544830D01*
X187943Y551178D02*
Y549908D01*
X186674D01*
X189213D01*
X187943D01*
Y546100D01*
X189213Y544830D01*
D13*
X758698Y574124D02*
Y582588D01*
Y572431D02*
Y570738D01*
X768855Y580895D02*
X765469D01*
X767162D01*
Y572431D01*
X765469Y570738D01*
X763776D01*
X762084Y572431D01*
X772240Y570738D02*
X775626D01*
X773933D01*
Y580895D01*
X772240Y579202D01*
X780704Y574124D02*
Y582588D01*
Y572431D02*
Y570738D01*
X763778Y421724D02*
Y430187D01*
Y420031D02*
Y418338D01*
X773935Y428495D02*
X770549D01*
X772242D01*
Y420031D01*
X770549Y418338D01*
X768856D01*
X767164Y420031D01*
X777320Y426802D02*
X779013Y428495D01*
X782399D01*
X784091Y426802D01*
Y425109D01*
X782399Y423416D01*
X780706D01*
X782399D01*
X784091Y421724D01*
Y420031D01*
X782399Y418338D01*
X779013D01*
X777320Y420031D01*
X787477Y421724D02*
Y430187D01*
Y420031D02*
Y418338D01*
X759968Y346794D02*
Y355257D01*
Y345101D02*
Y343408D01*
X770125Y353565D02*
X766739D01*
X768432D01*
Y345101D01*
X766739Y343408D01*
X765046D01*
X763354Y345101D01*
X778589Y343408D02*
Y353565D01*
X773510Y348486D01*
X780281D01*
X783667Y346794D02*
Y355257D01*
Y345101D02*
Y343408D01*
X757428Y497924D02*
Y506387D01*
Y496231D02*
Y494538D01*
X767585Y504695D02*
X764199D01*
X765892D01*
Y496231D01*
X764199Y494538D01*
X762506D01*
X760814Y496231D01*
X777741Y494538D02*
X770970D01*
X777741Y501309D01*
Y503002D01*
X776049Y504695D01*
X772663D01*
X770970Y503002D01*
X781127Y497924D02*
Y506387D01*
Y496231D02*
Y494538D01*
X725932Y345186D02*
Y355343D01*
X731010D01*
X732703Y353650D01*
Y350264D01*
X731010Y348572D01*
X725932D01*
X729318D02*
X732703Y345186D01*
X736089D02*
X739474D01*
X737782D01*
Y355343D01*
X736089Y353650D01*
X744553Y345186D02*
X747938D01*
X746245D01*
Y355343D01*
X744553Y353650D01*
X726440Y495046D02*
Y505203D01*
X731518D01*
X733211Y503510D01*
Y500124D01*
X731518Y498432D01*
X726440D01*
X729826D02*
X733211Y495046D01*
X736597Y496739D02*
X738289Y495046D01*
X741675D01*
X743368Y496739D01*
Y503510D01*
X741675Y505203D01*
X738289D01*
X736597Y503510D01*
Y501817D01*
X738289Y500124D01*
X743368D01*
X725932Y571246D02*
Y581403D01*
X731010D01*
X732703Y579710D01*
Y576324D01*
X731010Y574632D01*
X725932D01*
X729318D02*
X732703Y571246D01*
X736089Y579710D02*
X737782Y581403D01*
X741167D01*
X742860Y579710D01*
Y578017D01*
X741167Y576324D01*
X742860Y574632D01*
Y572939D01*
X741167Y571246D01*
X737782D01*
X736089Y572939D01*
Y574632D01*
X737782Y576324D01*
X736089Y578017D01*
Y579710D01*
X737782Y576324D02*
X741167D01*
X726440Y418846D02*
Y429003D01*
X731518D01*
X733211Y427310D01*
Y423924D01*
X731518Y422232D01*
X726440D01*
X729826D02*
X733211Y418846D01*
X736597D02*
X739982D01*
X738289D01*
Y429003D01*
X736597Y427310D01*
X745061D02*
X746753Y429003D01*
X750139D01*
X751832Y427310D01*
Y420539D01*
X750139Y418846D01*
X746753D01*
X745061Y420539D01*
Y427310D01*
X794766Y354327D02*
Y344170D01*
X799844D01*
X801537Y345863D01*
Y352634D01*
X799844Y354327D01*
X794766D01*
X804923Y345863D02*
X806616Y344170D01*
X810001D01*
X811694Y345863D01*
Y352634D01*
X810001Y354327D01*
X806616D01*
X804923Y352634D01*
Y350941D01*
X806616Y349248D01*
X811694D01*
X794766Y427987D02*
Y417830D01*
X799844D01*
X801537Y419523D01*
Y426294D01*
X799844Y427987D01*
X794766D01*
X804923Y426294D02*
X806616Y427987D01*
X810001D01*
X811694Y426294D01*
Y424601D01*
X810001Y422908D01*
X811694Y421216D01*
Y419523D01*
X810001Y417830D01*
X806616D01*
X804923Y419523D01*
Y421216D01*
X806616Y422908D01*
X804923Y424601D01*
Y426294D01*
X806616Y422908D02*
X810001D01*
X794766Y504187D02*
Y494030D01*
X799844D01*
X801537Y495723D01*
Y502494D01*
X799844Y504187D01*
X794766D01*
X804923D02*
X811694D01*
Y502494D01*
X804923Y495723D01*
Y494030D01*
X794766Y580387D02*
Y570230D01*
X799844D01*
X801537Y571923D01*
Y578694D01*
X799844Y580387D01*
X794766D01*
X811694D02*
X808308Y578694D01*
X804923Y575308D01*
Y571923D01*
X806616Y570230D01*
X810001D01*
X811694Y571923D01*
Y573616D01*
X810001Y575308D01*
X804923D01*
D14*
X700250Y200140D02*
X684530D01*
Y174746D01*
X700250D01*
X684530Y188047D02*
X694204D01*
X704483Y186838D02*
X715366D01*
X718994Y188047D01*
X720203Y189257D01*
X721413Y191675D01*
Y195303D01*
X720203Y197722D01*
X718994Y198931D01*
X715366Y200140D01*
X704483D01*
Y174746D01*
X727096Y200140D02*
Y174746D01*
X750556Y194094D02*
X749347Y196512D01*
X746928Y198931D01*
X744510Y200140D01*
X739672D01*
X737254Y198931D01*
X734835Y196512D01*
X733626Y194094D01*
X732417Y190466D01*
Y184420D01*
X733626Y180792D01*
X734835Y178373D01*
X737254Y175955D01*
X739672Y174746D01*
X744510D01*
X746928Y175955D01*
X749347Y178373D01*
X750556Y180792D01*
X774620Y196512D02*
X772202Y198931D01*
X768574Y200140D01*
X763737D01*
X760109Y198931D01*
X757691Y196512D01*
Y194094D01*
X758900Y191675D01*
X760109Y190466D01*
X762528Y189257D01*
X769783Y186838D01*
X772202Y185629D01*
X773411Y184420D01*
X774620Y182001D01*
Y178373D01*
X772202Y175955D01*
X768574Y174746D01*
X763737D01*
X760109Y175955D01*
X757691Y178373D01*
X703878Y132080D02*
X694204Y157475D01*
X684530Y132080D01*
X688158Y140545D02*
X700250D01*
X726733Y153847D02*
X724315Y156265D01*
X720687Y157475D01*
X715850D01*
X712222Y156265D01*
X709804Y153847D01*
Y151428D01*
X711013Y149010D01*
X712222Y147800D01*
X714641Y146591D01*
X721896Y144173D01*
X724315Y142963D01*
X725524Y141754D01*
X726733Y139336D01*
Y135708D01*
X724315Y133289D01*
X720687Y132080D01*
X715850D01*
X712222Y133289D01*
X709804Y135708D01*
X732417Y157475D02*
Y132080D01*
Y157475D02*
X742091Y132080D01*
X751765Y157475D02*
X742091Y132080D01*
X751765Y157475D02*
Y132080D01*
X774741Y157475D02*
X759021D01*
Y132080D01*
X774741D01*
X759021Y145382D02*
X768695D01*
D15*
X852167Y613406D02*
X849628Y615945D01*
X844549D01*
X842010Y613406D01*
Y610867D01*
X844549Y608327D01*
X849628D01*
X852167Y605788D01*
Y603249D01*
X849628Y600710D01*
X844549D01*
X842010Y603249D01*
X867402Y615945D02*
X857245D01*
Y600710D01*
X867402D01*
X857245Y608327D02*
X862323D01*
X872480Y600710D02*
Y615945D01*
X882637Y600710D01*
Y615945D01*
X897872Y613406D02*
X895333Y615945D01*
X890254D01*
X887715Y613406D01*
Y610867D01*
X890254Y608327D01*
X895333D01*
X897872Y605788D01*
Y603249D01*
X895333Y600710D01*
X890254D01*
X887715Y603249D01*
X910568Y615945D02*
X905490D01*
X902950Y613406D01*
Y603249D01*
X905490Y600710D01*
X910568D01*
X913107Y603249D01*
Y613406D01*
X910568Y615945D01*
X918185Y600710D02*
Y615945D01*
X925803D01*
X928342Y613406D01*
Y608327D01*
X925803Y605788D01*
X918185D01*
X923264D02*
X928342Y600710D01*
X943577Y613406D02*
X941038Y615945D01*
X935960D01*
X933420Y613406D01*
Y610867D01*
X935960Y608327D01*
X941038D01*
X943577Y605788D01*
Y603249D01*
X941038Y600710D01*
X935960D01*
X933420Y603249D01*
X196850Y1037590D02*
Y1052825D01*
X204468D01*
X207007Y1050286D01*
Y1045208D01*
X204468Y1042668D01*
X196850D01*
X212085Y1052825D02*
Y1040129D01*
X214624Y1037590D01*
X219703D01*
X222242Y1040129D01*
Y1052825D01*
X227320Y1037590D02*
Y1052825D01*
X232398Y1047747D01*
X237477Y1052825D01*
Y1037590D01*
X242555D02*
Y1052825D01*
X250173D01*
X252712Y1050286D01*
Y1045208D01*
X250173Y1042668D01*
X242555D01*
X267947Y1050286D02*
X265408Y1052825D01*
X260329D01*
X257790Y1050286D01*
Y1047747D01*
X260329Y1045208D01*
X265408D01*
X267947Y1042668D01*
Y1040129D01*
X265408Y1037590D01*
X260329D01*
X257790Y1040129D01*
D16*
X809752Y1054857D02*
Y1039622D01*
X817370D01*
X819909Y1042161D01*
Y1052318D01*
X817370Y1054857D01*
X809752D01*
X824987Y1052318D02*
X827526Y1054857D01*
X832605D01*
X835144Y1052318D01*
Y1049779D01*
X832605Y1047240D01*
X830065D01*
X832605D01*
X835144Y1044700D01*
Y1042161D01*
X832605Y1039622D01*
X827526D01*
X824987Y1042161D01*
X450854Y961393D02*
Y976628D01*
X458472D01*
X461011Y974088D01*
Y969010D01*
X458472Y966471D01*
X450854D01*
X455933D02*
X461011Y961393D01*
X473707D02*
Y976628D01*
X466089Y969010D01*
X476246D01*
X452124Y598172D02*
Y613408D01*
X459742D01*
X462281Y610868D01*
Y605790D01*
X459742Y603251D01*
X452124D01*
X457202D02*
X462281Y598172D01*
X467359Y613408D02*
X477516D01*
Y610868D01*
X467359Y600712D01*
Y598172D01*
X99565Y856483D02*
X94486D01*
X97025D01*
Y843787D01*
X94486Y841248D01*
X91947D01*
X89408Y843787D01*
X114800Y841248D02*
X104643D01*
X114800Y851405D01*
Y853944D01*
X112261Y856483D01*
X107182D01*
X104643Y853944D01*
X514858Y737870D02*
Y753105D01*
X519936Y748027D01*
X525015Y753105D01*
Y737870D01*
X530093Y753105D02*
Y737870D01*
X537711D01*
X540250Y740409D01*
Y750566D01*
X537711Y753105D01*
X530093D01*
X545328Y737870D02*
X550406D01*
X547867D01*
Y753105D01*
X545328Y750566D01*
X734061Y853442D02*
Y863598D01*
X731522Y866137D01*
X726443D01*
X723904Y863598D01*
Y853442D01*
X726443Y850902D01*
X731522D01*
X728982Y855981D02*
X734061Y850902D01*
X731522D02*
X734061Y853442D01*
X746757Y850902D02*
Y866137D01*
X739139Y858520D01*
X749296D01*
X956311Y210818D02*
X951233D01*
X953772D01*
Y198122D01*
X951233Y195583D01*
X948693D01*
X946154Y198122D01*
X969007Y195583D02*
Y210818D01*
X961389Y203200D01*
X971546D01*
X956311Y369967D02*
X951233D01*
X953772D01*
Y357272D01*
X951233Y354733D01*
X948693D01*
X946154Y357272D01*
X971546Y369967D02*
X961389D01*
Y362350D01*
X966468Y364889D01*
X969007D01*
X971546Y362350D01*
Y357272D01*
X969007Y354733D01*
X963928D01*
X961389Y357272D01*
X962657Y881377D02*
X947422Y871220D01*
X962657D02*
X947422Y881377D01*
Y866142D02*
Y861063D01*
Y863602D01*
X962657D01*
X960118Y866142D01*
X720724Y1037278D02*
X730881Y1022042D01*
Y1037278D02*
X720724Y1022042D01*
X746116D02*
X735959D01*
X746116Y1032199D01*
Y1034738D01*
X743577Y1037278D01*
X738498D01*
X735959Y1034738D01*
X247651Y284478D02*
X245112Y287017D01*
X240033D01*
X237494Y284478D01*
Y274322D01*
X240033Y271782D01*
X245112D01*
X247651Y274322D01*
X262886Y271782D02*
X252729D01*
X262886Y281939D01*
Y284478D01*
X260347Y287017D01*
X255268D01*
X252729Y284478D01*
X120650Y297178D02*
X118111Y299718D01*
X113033D01*
X110493Y297178D01*
Y287022D01*
X113033Y284482D01*
X118111D01*
X120650Y287022D01*
X125728Y284482D02*
X130807D01*
X128268D01*
Y299718D01*
X125728Y297178D01*
X452124Y777243D02*
Y792477D01*
X459742D01*
X462281Y789938D01*
Y784860D01*
X459742Y782321D01*
X452124D01*
X457202D02*
X462281Y777243D01*
X477516Y792477D02*
X472438Y789938D01*
X467359Y784860D01*
Y779782D01*
X469898Y777243D01*
X474977D01*
X477516Y779782D01*
Y782321D01*
X474977Y784860D01*
X467359D01*
X543686Y850902D02*
Y866137D01*
X551304D01*
X553843Y863598D01*
Y858520D01*
X551304Y855981D01*
X543686D01*
X548765D02*
X553843Y850902D01*
X569078Y866137D02*
X558921D01*
Y858520D01*
X564000Y861059D01*
X566539D01*
X569078Y858520D01*
Y853442D01*
X566539Y850902D01*
X561460D01*
X558921Y853442D01*
X271526Y661411D02*
Y646176D01*
X279144D01*
X281683Y648715D01*
Y658872D01*
X279144Y661411D01*
X271526D01*
X296918D02*
X286761D01*
Y653793D01*
X291839Y656333D01*
X294379D01*
X296918Y653793D01*
Y648715D01*
X294379Y646176D01*
X289300D01*
X286761Y648715D01*
X271526Y845561D02*
Y830326D01*
X279144D01*
X281683Y832865D01*
Y843022D01*
X279144Y845561D01*
X271526D01*
X294379Y830326D02*
Y845561D01*
X286761Y837943D01*
X296918D01*
X271526Y1029711D02*
Y1014476D01*
X279144D01*
X281683Y1017015D01*
Y1027172D01*
X279144Y1029711D01*
X271526D01*
X296918Y1014476D02*
X286761D01*
X296918Y1024633D01*
Y1027172D01*
X294379Y1029711D01*
X289300D01*
X286761Y1027172D01*
X442973Y258060D02*
X440434Y260599D01*
X435355D01*
X432816Y258060D01*
Y247903D01*
X435355Y245364D01*
X440434D01*
X442973Y247903D01*
X448051Y258060D02*
X450590Y260599D01*
X455669D01*
X458208Y258060D01*
Y255521D01*
X455669Y252981D01*
X453129D01*
X455669D01*
X458208Y250442D01*
Y247903D01*
X455669Y245364D01*
X450590D01*
X448051Y247903D01*
X588769Y224278D02*
X586230Y226817D01*
X581151D01*
X578612Y224278D01*
Y214121D01*
X581151Y211582D01*
X586230D01*
X588769Y214121D01*
X601465Y211582D02*
Y226817D01*
X593847Y219200D01*
X604004D01*
X177801Y516888D02*
X175262Y519427D01*
X170183D01*
X167644Y516888D01*
Y506732D01*
X170183Y504193D01*
X175262D01*
X177801Y506732D01*
X193036Y519427D02*
X182879D01*
Y511810D01*
X187957Y514349D01*
X190497D01*
X193036Y511810D01*
Y506732D01*
X190497Y504193D01*
X185418D01*
X182879Y506732D01*
X810261Y203198D02*
X807722Y205737D01*
X802643D01*
X800104Y203198D01*
Y193042D01*
X802643Y190502D01*
X807722D01*
X810261Y193042D01*
X825496Y205737D02*
X820417Y203198D01*
X815339Y198120D01*
Y193042D01*
X817878Y190502D01*
X822957D01*
X825496Y193042D01*
Y195581D01*
X822957Y198120D01*
X815339D01*
X734061Y627378D02*
X731522Y629917D01*
X726443D01*
X723904Y627378D01*
Y617222D01*
X726443Y614683D01*
X731522D01*
X734061Y617222D01*
X739139Y629917D02*
X749296D01*
Y627378D01*
X739139Y617222D01*
Y614683D01*
X734061Y752458D02*
X731522Y754998D01*
X726443D01*
X723904Y752458D01*
Y742302D01*
X726443Y739762D01*
X731522D01*
X734061Y742302D01*
X739139Y752458D02*
X741678Y754998D01*
X746757D01*
X749296Y752458D01*
Y749919D01*
X746757Y747380D01*
X749296Y744841D01*
Y742302D01*
X746757Y739762D01*
X741678D01*
X739139Y742302D01*
Y744841D01*
X741678Y747380D01*
X739139Y749919D01*
Y752458D01*
X741678Y747380D02*
X746757D01*
X810261Y265428D02*
X807722Y267967D01*
X802643D01*
X800104Y265428D01*
Y255272D01*
X802643Y252733D01*
X807722D01*
X810261Y255272D01*
X815339D02*
X817878Y252733D01*
X822957D01*
X825496Y255272D01*
Y265428D01*
X822957Y267967D01*
X817878D01*
X815339Y265428D01*
Y262889D01*
X817878Y260350D01*
X825496D01*
X105664Y398013D02*
Y382778D01*
X113281D01*
X115821Y385317D01*
Y395474D01*
X113281Y398013D01*
X105664D01*
X120899Y382778D02*
X125977D01*
X123438D01*
Y398013D01*
X120899Y395474D01*
X99565Y1046983D02*
X94486D01*
X97025D01*
Y1034287D01*
X94486Y1031748D01*
X91947D01*
X89408Y1034287D01*
X104643Y1031748D02*
X109721D01*
X107182D01*
Y1046983D01*
X104643Y1044444D01*
X101343Y678683D02*
X96264D01*
X98804D01*
Y665987D01*
X96264Y663448D01*
X93725D01*
X91186Y665987D01*
X106421Y676144D02*
X108960Y678683D01*
X114039D01*
X116578Y676144D01*
Y673605D01*
X114039Y671066D01*
X111499D01*
X114039D01*
X116578Y668526D01*
Y665987D01*
X114039Y663448D01*
X108960D01*
X106421Y665987D01*
X382016Y390647D02*
Y375412D01*
X392173D01*
X397251D02*
X402329D01*
X399790D01*
Y390647D01*
X397251Y388108D01*
X380997Y1042923D02*
Y1053080D01*
X378457Y1055619D01*
X373379D01*
X370840Y1053080D01*
Y1042923D01*
X373379Y1040384D01*
X378457D01*
X375918Y1045462D02*
X380997Y1040384D01*
X378457D02*
X380997Y1042923D01*
X386075Y1040384D02*
X391153D01*
X388614D01*
Y1055619D01*
X386075Y1053080D01*
X380997Y856233D02*
Y866390D01*
X378457Y868929D01*
X373379D01*
X370840Y866390D01*
Y856233D01*
X373379Y853694D01*
X378457D01*
X375918Y858772D02*
X380997Y853694D01*
X378457D02*
X380997Y856233D01*
X396232Y853694D02*
X386075D01*
X396232Y863851D01*
Y866390D01*
X393693Y868929D01*
X388614D01*
X386075Y866390D01*
X379219Y677163D02*
Y687320D01*
X376679Y689859D01*
X371601D01*
X369062Y687320D01*
Y677163D01*
X371601Y674624D01*
X376679D01*
X374140Y679702D02*
X379219Y674624D01*
X376679D02*
X379219Y677163D01*
X384297Y687320D02*
X386836Y689859D01*
X391915D01*
X394454Y687320D01*
Y684781D01*
X391915Y682242D01*
X389375D01*
X391915D01*
X394454Y679702D01*
Y677163D01*
X391915Y674624D01*
X386836D01*
X384297Y677163D01*
X383032Y428498D02*
Y443733D01*
X390649D01*
X393189Y441194D01*
Y436115D01*
X390649Y433576D01*
X383032D01*
X388110D02*
X393189Y428498D01*
X398267D02*
X403345D01*
X400806D01*
Y443733D01*
X398267Y441194D01*
X168148Y434848D02*
Y450083D01*
X175765D01*
X178305Y447544D01*
Y442466D01*
X175765Y439926D01*
X168148D01*
X173226D02*
X178305Y434848D01*
X193540D02*
X183383D01*
X193540Y445005D01*
Y447544D01*
X191001Y450083D01*
X185922D01*
X183383Y447544D01*
X379222Y492506D02*
Y507741D01*
X386839D01*
X389379Y505202D01*
Y500123D01*
X386839Y497584D01*
X379222D01*
X384300D02*
X389379Y492506D01*
X394457Y505202D02*
X396996Y507741D01*
X402075D01*
X404614Y505202D01*
Y502663D01*
X402075Y500123D01*
X399535D01*
X402075D01*
X404614Y497584D01*
Y495045D01*
X402075Y492506D01*
X396996D01*
X394457Y495045D01*
X248412Y478023D02*
Y465327D01*
X250951Y462788D01*
X256029D01*
X258569Y465327D01*
Y478023D01*
X263647Y462788D02*
X268725D01*
X266186D01*
Y478023D01*
X263647Y475484D01*
X956311Y528317D02*
X951233D01*
X953772D01*
Y515622D01*
X951233Y513083D01*
X948693D01*
X946154Y515622D01*
X971546Y528317D02*
X966468Y525778D01*
X961389Y520700D01*
Y515622D01*
X963928Y513083D01*
X969007D01*
X971546Y515622D01*
Y518161D01*
X969007Y520700D01*
X961389D01*
D17*
X134332Y288434D02*
X144780D01*
X139556Y283210D02*
Y293658D01*
M02*
