G04*
G04 #@! TF.GenerationSoftware,Altium Limited,Altium Designer,26.2.0 (7)*
G04*
G04 Layer_Color=8388736*
%FSLAX25Y25*%
%MOIN*%
G70*
G04*
G04 #@! TF.SameCoordinates,61BC11FC-F2DE-41EC-9672-5AF9455818F8*
G04*
G04*
G04 #@! TF.FilePolarity,Negative*
G04*
G01*
G75*
%ADD18R,0.08661X0.16929*%
%ADD19R,0.12631X0.04547*%
%ADD21R,0.05512X0.03740*%
%ADD22R,0.05333X0.05756*%
%ADD23R,0.05924X0.10662*%
%ADD24R,0.06299X0.09843*%
%ADD26R,0.04545X0.05339*%
%ADD27R,0.09843X0.13780*%
%ADD28R,0.05906X0.06299*%
%ADD29R,0.03543X0.04724*%
%ADD33R,0.06115X0.05131*%
%ADD34R,0.03950X0.05721*%
%ADD35R,0.04343X0.03950*%
%ADD36R,0.07099X0.14580*%
%ADD37R,0.05131X0.05131*%
%ADD38C,0.07099*%
%ADD39R,0.07099X0.07099*%
%ADD40R,0.14580X0.06706*%
%ADD41R,0.06706X0.14580*%
%ADD42R,0.06706X0.16548*%
%ADD43C,0.05567*%
%ADD44R,0.05567X0.05567*%
%ADD45C,0.07284*%
%ADD46C,0.05512*%
%ADD47R,0.05512X0.05512*%
%ADD48R,0.07284X0.07284*%
%ADD49O,0.10252X0.05528*%
%ADD50C,0.15433*%
%ADD51O,0.05528X0.10252*%
%ADD52C,0.07493*%
%ADD53R,0.07284X0.07284*%
%ADD54C,0.04331*%
%ADD55R,0.15433X0.15433*%
%ADD56R,0.15433X0.15433*%
%ADD57R,0.07493X0.07493*%
%ADD58R,0.07099X0.07099*%
%ADD59C,0.04000*%
%ADD60C,0.03200*%
D18*
X117500Y94823D02*
D03*
Y60177D02*
D03*
D19*
X182500Y372500D02*
D03*
Y350251D02*
D03*
X182000Y230125D02*
D03*
Y207875D02*
D03*
X183000Y300125D02*
D03*
Y277875D02*
D03*
D21*
X332500Y81142D02*
D03*
X290000Y262500D02*
D03*
Y255217D02*
D03*
X332500Y73858D02*
D03*
D22*
X290317Y187000D02*
D03*
X290158Y128000D02*
D03*
X290317Y157000D02*
D03*
X290158Y217000D02*
D03*
X297842Y128000D02*
D03*
X298000Y187000D02*
D03*
X297842Y217000D02*
D03*
X298000Y157000D02*
D03*
D23*
X230452Y323000D02*
D03*
X211548D02*
D03*
D24*
X295000Y74390D02*
D03*
Y60610D02*
D03*
D26*
X157822Y140000D02*
D03*
X152500D02*
D03*
D27*
X177500Y87795D02*
D03*
Y62205D02*
D03*
D28*
X330087Y217000D02*
D03*
Y128000D02*
D03*
Y157000D02*
D03*
Y187000D02*
D03*
X315913D02*
D03*
Y157000D02*
D03*
Y128000D02*
D03*
Y217000D02*
D03*
D29*
X159134Y187500D02*
D03*
X150866D02*
D03*
D33*
X332500Y107756D02*
D03*
X290000Y279244D02*
D03*
Y284756D02*
D03*
X332500Y102244D02*
D03*
D34*
X158150Y162500D02*
D03*
X151850D02*
D03*
D35*
X70000Y192461D02*
D03*
Y187539D02*
D03*
D36*
X59500Y67476D02*
D03*
Y89524D02*
D03*
D37*
X69457Y164000D02*
D03*
X76543D02*
D03*
D38*
X327500Y372500D02*
D03*
X52000Y138000D02*
D03*
X117500Y312500D02*
D03*
Y385000D02*
D03*
Y240000D02*
D03*
D39*
X327500Y392500D02*
D03*
X117500Y220000D02*
D03*
Y292500D02*
D03*
Y365000D02*
D03*
D40*
X76811Y291496D02*
D03*
Y366496D02*
D03*
X77500Y221496D02*
D03*
D41*
X65000Y310000D02*
D03*
Y385000D02*
D03*
X65689Y240000D02*
D03*
D42*
X88622Y310000D02*
D03*
X89311Y240000D02*
D03*
X88622Y385000D02*
D03*
D43*
X270000Y191750D02*
D03*
Y271750D02*
D03*
Y251750D02*
D03*
Y231750D02*
D03*
Y221750D02*
D03*
Y211750D02*
D03*
Y201750D02*
D03*
Y151750D02*
D03*
Y141750D02*
D03*
Y131750D02*
D03*
X210000D02*
D03*
Y141750D02*
D03*
Y151750D02*
D03*
Y161750D02*
D03*
Y171750D02*
D03*
Y181750D02*
D03*
Y191750D02*
D03*
Y201750D02*
D03*
Y211750D02*
D03*
Y221750D02*
D03*
Y231750D02*
D03*
Y251750D02*
D03*
Y261750D02*
D03*
X270000Y161750D02*
D03*
Y181750D02*
D03*
Y171750D02*
D03*
Y241750D02*
D03*
X210000D02*
D03*
X270000Y261750D02*
D03*
D44*
X210000Y271750D02*
D03*
D45*
X152000Y300500D02*
D03*
X260000Y325276D02*
D03*
X151224Y230000D02*
D03*
X152000Y374000D02*
D03*
X270000Y325276D02*
D03*
X152000Y310500D02*
D03*
X151224Y240000D02*
D03*
X152000Y384000D02*
D03*
D46*
X360000Y132815D02*
D03*
Y195158D02*
D03*
Y185315D02*
D03*
Y80158D02*
D03*
Y205000D02*
D03*
Y70315D02*
D03*
Y60472D02*
D03*
Y122972D02*
D03*
Y142657D02*
D03*
D47*
Y90000D02*
D03*
Y152500D02*
D03*
Y214843D02*
D03*
D48*
X152000Y394000D02*
D03*
Y320500D02*
D03*
X151224Y250000D02*
D03*
D49*
X347000Y277500D02*
D03*
Y330650D02*
D03*
D50*
X323378Y318248D02*
D03*
X235402Y355378D02*
D03*
D51*
X276150Y379000D02*
D03*
X223000D02*
D03*
D52*
X102000Y157307D02*
D03*
Y143921D02*
D03*
X117000Y150614D02*
D03*
Y164000D02*
D03*
D53*
X280000Y325276D02*
D03*
D54*
X352126Y96299D02*
D03*
Y158799D02*
D03*
Y221142D02*
D03*
D55*
X323378Y289902D02*
D03*
D56*
X263748Y355378D02*
D03*
D57*
X102000Y170693D02*
D03*
D58*
X72000Y138000D02*
D03*
D59*
X105500Y44500D02*
D03*
X117500D02*
D03*
X130000D02*
D03*
Y110500D02*
D03*
X105500D02*
D03*
X118000D02*
D03*
X200500Y326000D02*
D03*
Y319500D02*
D03*
X207000D02*
D03*
Y326000D02*
D03*
X179000Y203000D02*
D03*
X185500D02*
D03*
Y196500D02*
D03*
X179000D02*
D03*
X179500Y266500D02*
D03*
X186000D02*
D03*
Y273000D02*
D03*
X179500D02*
D03*
X179000Y345000D02*
D03*
X185500D02*
D03*
Y338500D02*
D03*
X179000D02*
D03*
X328000Y337000D02*
D03*
X318000D02*
D03*
X307000D02*
D03*
Y326000D02*
D03*
Y316000D02*
D03*
X327900Y348158D02*
D03*
X317900Y348842D02*
D03*
X306900Y348158D02*
D03*
X295000Y46390D02*
D03*
X177500Y45000D02*
D03*
X167000Y187500D02*
D03*
X89000Y157000D02*
D03*
X52009Y154050D02*
D03*
X72000Y53000D02*
D03*
X47500D02*
D03*
X59500D02*
D03*
Y105000D02*
D03*
X47000D02*
D03*
X71500D02*
D03*
X328308Y262869D02*
D03*
Y273369D02*
D03*
X318308Y262869D02*
D03*
Y273369D02*
D03*
X102000Y135000D02*
D03*
Y127000D02*
D03*
X307308Y283869D02*
D03*
Y273369D02*
D03*
Y294369D02*
D03*
Y262869D02*
D03*
D60*
X198700Y300000D02*
D03*
X193000Y230000D02*
D03*
X230000Y310000D02*
D03*
X282500Y187000D02*
D03*
Y128000D02*
D03*
X330500Y225500D02*
D03*
Y194500D02*
D03*
X282000Y285000D02*
D03*
Y255000D02*
D03*
X330500Y164500D02*
D03*
Y135500D02*
D03*
X332500Y95000D02*
D03*
Y67500D02*
D03*
X85000Y192000D02*
D03*
X199000Y373000D02*
D03*
X282500Y157500D02*
D03*
Y217000D02*
D03*
M02*
