G04*
G04 #@! TF.GenerationSoftware,Altium Limited,Altium Designer,26.2.0 (7)*
G04*
G04 Layer_Color=8421504*
%FSLAX25Y25*%
%MOIN*%
G70*
G04*
G04 #@! TF.SameCoordinates,61BC11FC-F2DE-41EC-9672-5AF9455818F8*
G04*
G04*
G04 #@! TF.FilePolarity,Positive*
G04*
G01*
G75*
%ADD18R,0.08661X0.16929*%
%ADD19R,0.12631X0.04547*%
%ADD20R,0.05315X0.04331*%
%ADD21R,0.05512X0.03740*%
%ADD22R,0.05333X0.05756*%
%ADD23R,0.05924X0.10662*%
%ADD24R,0.06299X0.09843*%
%ADD25R,0.03150X0.04921*%
%ADD26R,0.04545X0.05339*%
%ADD27R,0.09843X0.13780*%
%ADD28R,0.05906X0.06299*%
%ADD29R,0.03543X0.04724*%
%ADD30R,0.03543X0.03150*%
%ADD31R,0.06299X0.13780*%
%ADD32R,0.04331X0.04331*%
D18*
X117500Y94823D02*
D03*
Y60177D02*
D03*
D19*
X182500Y372500D02*
D03*
Y350251D02*
D03*
X182000Y230125D02*
D03*
Y207875D02*
D03*
X183000Y300125D02*
D03*
Y277875D02*
D03*
D20*
X332500Y107756D02*
D03*
X290000Y279244D02*
D03*
Y284756D02*
D03*
X332500Y102244D02*
D03*
D21*
Y81142D02*
D03*
X290000Y262500D02*
D03*
Y255217D02*
D03*
X332500Y73858D02*
D03*
D22*
X290317Y187000D02*
D03*
X290158Y128000D02*
D03*
X290317Y157000D02*
D03*
X290158Y217000D02*
D03*
X297842Y128000D02*
D03*
X298000Y187000D02*
D03*
X297842Y217000D02*
D03*
X298000Y157000D02*
D03*
D23*
X230452Y323000D02*
D03*
X211548D02*
D03*
D24*
X295000Y74390D02*
D03*
Y60610D02*
D03*
D25*
X158150Y162500D02*
D03*
X151850D02*
D03*
D26*
X157822Y140000D02*
D03*
X152500D02*
D03*
D27*
X177500Y87795D02*
D03*
Y62205D02*
D03*
D28*
X330087Y217000D02*
D03*
Y128000D02*
D03*
Y157000D02*
D03*
Y187000D02*
D03*
X315913D02*
D03*
Y157000D02*
D03*
Y128000D02*
D03*
Y217000D02*
D03*
D29*
X159134Y187500D02*
D03*
X150866D02*
D03*
D30*
X70000Y192461D02*
D03*
Y187539D02*
D03*
D31*
X59500Y67476D02*
D03*
Y89524D02*
D03*
D32*
X69457Y164000D02*
D03*
X76543D02*
D03*
M02*
