M48
;Layer_Color=9474304
;FILE_FORMAT=2:4
INCH,TZ
;TYPE=PLATED
T01F00S00C0.0120
T02F00S00C0.0160
T04F00S00C0.0354
T05F00S00C0.0360
T06F00S00C0.0394
T08F00S00C0.0433
T09F00S00C0.0472
T10F00S00C0.1063
%
T01
X28250Y12800
X33050Y13550
X33250Y9500
Y6750
X33050Y16450
Y19450
Y22550
X28250Y21700
Y18700
Y15750
X28200Y25500
Y28500
X23000Y31000
X19870Y30000
X19300Y23000
X8500Y19200
X19900Y37300
T02
X4750Y5300
X5950
X7200
X11050Y4300
X12250
X13500
Y10900
X12300
X11050
X10200Y12700
Y13500
X7150Y10500
X5950
X4700
X5201Y15405
X18750Y4250
X23700Y4600
X31831Y26287
X32831
Y27337
X31831
X30731
Y28387
Y29437
Y26287
X18600Y26650
X17950
Y27300
X18600
X18550Y20300
X17900
Y19650
X18550
X16700Y18750
X8900Y15700
X17900Y33850
Y34500
X18550
Y33850
X20050Y32600
Y31950
X20700
Y32600
X30700
Y31600
Y33700
X30690Y34816
X31790Y34884
X32790Y34816
X32800Y33700
X31800
T04
X36000Y6047
Y7031
Y8016
Y9000
Y12297
Y13282
Y14266
Y15250
Y18532
Y19516
Y20500
Y21484
T05
X21000Y13175
Y14175
Y15175
X27000
Y14175
Y13175
Y16175
Y17175
Y18175
Y19175
Y20175
Y21175
Y22175
Y23175
Y24175
Y25175
Y26175
Y27175
X21000
Y26175
Y25175
Y24175
Y23175
Y22175
Y21175
Y20175
Y19175
Y18175
Y17175
Y16175
T06
X5200Y13800
X7200
X11750Y22000
Y24000
Y29250
Y31250
Y36500
Y38500
X32750Y39250
Y37250
T08
X10200Y14392
X11700Y15061
Y16400
X10200Y17069
Y15731
T09
X15122Y23000
Y24000
Y25000
X15200Y30050
Y31050
Y32050
Y37400
Y38400
Y39400
X26000Y32528
X27000
X28000
T10
X32338Y28990
X26375Y35538
X23540
X32338Y31825
M30
