M48
;Layer_Color=9474304
;FILE_FORMAT=2:4
INCH,LZ
;TYPE=PLATED
T01F00S00C0.0120
T02F00S00C0.0160
T04F00S00C0.0354
T05F00S00C0.0360
T06F00S00C0.0394
T08F00S00C0.0433
T09F00S00C0.0472
T10F00S00C0.1063
%
T01
X02825Y0128
X03305Y01355
X03325Y0095
Y00675
X03305Y01645
Y01945
Y02255
X02825Y0217
Y0187
Y01575
X0282Y0255
Y0285
X023Y031
X01987Y03
X0193Y023
X0085Y0192
X0199Y0373
T02
X00475Y0053
X00595
X0072
X01055Y00445
X01175
X013
Y01105
X0118
X01055
X0102Y0127
Y0135
X00715Y0105
X00595
X0047
X005201Y015405
X01775Y0045
X0295Y004639
X031831Y026287
X032831
Y027337
X031831
X030731
Y028387
Y029437
Y026287
X0186Y02665
X01795
Y0273
X0186
X01855Y0203
X0179
Y01965
X01855
X0167Y01875
X0089Y0157
X0179Y03385
Y0345
X01855
Y03385
X02005Y0326
Y03195
X0207
Y0326
X0307
Y0316
Y0337
X03069Y034816
X03179Y034884
X03279Y034816
X0328Y0337
X0318
T04
X036Y006047
Y007031
Y008016
Y009
Y012297
Y013282
Y014266
Y01525
Y018532
Y019516
Y0205
Y021484
T05
X021Y013175
Y014175
Y015175
X027
Y014175
Y013175
Y016175
Y017175
Y018175
Y019175
Y020175
Y021175
Y022175
Y023175
Y024175
Y025175
Y026175
Y027175
X021
Y026175
Y025175
Y024175
Y023175
Y022175
Y021175
Y020175
Y019175
Y018175
Y017175
Y016175
T06
X0052Y0138
X0072
X01175Y022
Y024
Y02925
Y03125
Y0365
Y0385
X03275Y03925
Y03725
T08
X0102Y014392
X0117Y015061
Y0164
X0102Y017069
Y015731
T09
X015122Y023
Y024
Y025
X0152Y03005
Y03105
Y03205
Y0374
Y0384
Y0394
X026Y032528
X027
X028
T10
X032338Y02899
X026375Y035538
X02354
X032338Y031825
M30
